HIERARCHY
ROOT Hips
{
	OFFSET 0.000000 0.000000 0.000000
	CHANNELS 6 Xposition Yposition Zposition Zrotation Yrotation Xrotation 
	JOINT LHipJoint
	{
		OFFSET 0.000000 0.000000 0.000000
		CHANNELS 3 Zrotation Yrotation Xrotation
		JOINT LeftUpLeg
		{
			OFFSET 1.363060 -1.794630 0.839290
			CHANNELS 3 Zrotation Yrotation Xrotation
			JOINT LeftLeg
			{
				OFFSET 2.448110 -6.726130 0.000000
				CHANNELS 3 Zrotation Yrotation Xrotation
				JOINT LeftFoot
				{
					OFFSET 2.562200 -7.039590 0.000000
					CHANNELS 3 Zrotation Yrotation Xrotation
					JOINT LeftToeBase
					{
						OFFSET 0.157640 -0.433110 2.322550
						CHANNELS 3 Zrotation Yrotation Xrotation
						End Site
						{
							OFFSET 0.000000 0.000000 0.000000
						}
					}
				}
			}
		}
	}
	JOINT RHipJoint
	{
		OFFSET 0.000000 0.000000 0.000000
		CHANNELS 3 Zrotation Yrotation Xrotation
		JOINT RightUpLeg
		{
			OFFSET -1.305520 -1.794630 0.839290
			CHANNELS 3 Zrotation Yrotation Xrotation
			JOINT RightLeg
			{
				OFFSET -2.542530 -6.985550 0.000000
				CHANNELS 3 Zrotation Yrotation Xrotation
				JOINT RightFoot
				{
					OFFSET -2.568260 -7.056230 0.000000
					CHANNELS 3 Zrotation Yrotation Xrotation
					JOINT RightToeBase
					{
						OFFSET -0.164730 -0.452590 2.363150
						CHANNELS 3 Zrotation Yrotation Xrotation
						End Site
						{
							OFFSET 0.000000 0.000000 0.000000
						}
					}
				}
			}
		}
	}
	JOINT LowerBack
	{
		OFFSET 0.000000 0.000000 0.000000
		CHANNELS 3 Zrotation Yrotation Xrotation
		JOINT Spine
		{
			OFFSET 0.028270 2.035590 -0.193380
			CHANNELS 3 Zrotation Yrotation Xrotation
			JOINT Spine1
			{
				OFFSET 0.056720 2.048850 -0.042750
				CHANNELS 3 Zrotation Yrotation Xrotation
				JOINT Neck
				{
					OFFSET 0.000000 0.000000 0.000000
					CHANNELS 3 Zrotation Yrotation Xrotation
					JOINT Neck1
					{
						OFFSET -0.054170 1.746240 0.172020
						CHANNELS 3 Zrotation Yrotation Xrotation
						JOINT Head
						{
							OFFSET 0.104070 1.761360 -0.123970
							CHANNELS 3 Zrotation Yrotation Xrotation
							End Site
							{
								OFFSET 0.000000 0.000000 0.000000
							}
						}
					}
				}
				JOINT LeftShoulder
				{
					OFFSET 0.000000 0.000000 0.000000
					CHANNELS 3 Zrotation Yrotation Xrotation
					JOINT LeftArm
					{
						OFFSET 3.362410 1.200890 -0.311210
						CHANNELS 3 Zrotation Yrotation Xrotation
						JOINT LeftForeArm
						{
							OFFSET 4.983000 -0.000000 -0.000000
							CHANNELS 3 Zrotation Yrotation Xrotation
							JOINT LeftHand
							{
								OFFSET 3.483560 -0.000000 -0.000000
								CHANNELS 3 Zrotation Yrotation Xrotation
								JOINT LeftFingerBase
								{
									OFFSET 0.000000 0.000000 0.000000
									CHANNELS 3 Zrotation Yrotation Xrotation
									JOINT LeftHandIndex1
									{
										OFFSET 0.715260 -0.000000 -0.000000
										CHANNELS 3 Zrotation Yrotation Xrotation
										End Site
										{
											OFFSET 0.000000 0.000000 0.000000
										}
									}
								}
								JOINT LThumb
								{
									OFFSET 0.000000 0.000000 0.000000
									CHANNELS 3 Zrotation Yrotation Xrotation
									End Site
									{
										OFFSET 0.000000 0.000000 0.000000
									}
								}
							}
						}
					}
				}
				JOINT RightShoulder
				{
					OFFSET 0.000000 0.000000 0.000000
					CHANNELS 3 Zrotation Yrotation Xrotation
					JOINT RightArm
					{
						OFFSET -3.136600 1.374050 -0.404650
						CHANNELS 3 Zrotation Yrotation Xrotation
						JOINT RightForeArm
						{
							OFFSET -5.241900 -0.000000 -0.000000
							CHANNELS 3 Zrotation Yrotation Xrotation
							JOINT RightHand
							{
								OFFSET -3.444170 -0.000000 -0.000000
								CHANNELS 3 Zrotation Yrotation Xrotation
								JOINT RightFingerBase
								{
									OFFSET 0.000000 0.000000 0.000000
									CHANNELS 3 Zrotation Yrotation Xrotation
									JOINT RightHandIndex1
									{
										OFFSET -0.622530 -0.000000 -0.000000
										CHANNELS 3 Zrotation Yrotation Xrotation
										End Site
										{
											OFFSET 0.000000 0.000000 0.000000
										}
									}
								}
								JOINT RThumb
								{
									OFFSET 0.000000 0.000000 0.000000
									CHANNELS 3 Zrotation Yrotation Xrotation
									End Site
									{
										OFFSET 0.000000 0.000000 0.000000
									}
								}
							}
						}
					}
				}
			}
		}
	}
}
MOTION
Frames: 8
Frame Time: 0.008333
10.990649 18.018221 4.150578 177.336211 1.712541 -160.382022 11.003976 1.104916 -3.160365 -11.552153 -21.220263 -75.546320 16.449966 26.023951 82.193176 2.144745 -2.404252 -27.901442 1.917300 -8.691600 -24.835200 -14.085965 -2.750730 -2.053510 33.579627 16.228189 -14.562994 1.091290 -5.163844 13.023810 -1.093605 -2.619205 -20.974075 -3.880500 11.999700 -35.731000 -3.190516 0.157293 -13.250274 1.347369 0.548384 -3.252991 -0.098036 -0.484764 14.812311 -9.805924 -2.259499 -4.685744 8.736602 -5.903324 29.215184 1.035000 -2.098500 7.219200 16.411512 -0.744562 0.916366 -105.377823 -0.732849 18.849521 14.734947 -18.237495 -3.139317 -1.489803 0.516677 6.537258 19.254018 -9.312283 -3.620800 -7.125000 0.000000 0.000000 -4.407400 19.746200 2.667000 -11.511884 0.830743 0.012326 96.597010 4.261169 15.679275 -20.639000 32.571247 -7.734320 0.455737 3.765368 -3.067743 -11.696339 -49.322301 9.918000 7.125000 0.000000 0.000000 66.521500 -75.854400 -52.572600 
10.990649 18.019208 4.083253 177.318661 1.801809 -160.429560 11.011029 1.113514 -3.155443 -11.412328 -21.171684 -75.640272 15.798657 25.933401 80.496906 2.055323 -2.632118 -27.605699 1.757500 -8.341500 -23.756200 -14.063875 -2.761845 -2.077196 33.583472 16.097010 -14.402181 1.066888 -5.220918 13.248116 -1.122746 -2.486562 -21.161097 -3.859200 11.970700 -35.628500 -3.202296 0.270485 -13.195446 1.293188 0.711620 -3.234247 -0.185869 -0.402481 14.806349 -9.766889 -2.302477 -4.641989 8.729585 -6.001459 29.324776 1.022700 -2.147900 7.245300 16.403558 -0.746713 0.921623 -105.204166 -0.704915 19.059033 14.650869 -18.111381 -3.098577 -1.504620 0.543074 6.406026 19.354759 -9.506082 -3.725800 -7.125000 0.000000 0.000000 -4.327400 19.503700 2.641800 -11.522925 0.827304 0.011788 96.749139 4.364241 15.878702 -20.620625 32.551627 -7.722795 0.485509 3.743221 -2.940784 -11.944060 -48.964763 10.085300 7.125000 0.000000 0.000000 64.932000 -75.838900 -51.111200 
10.989443 18.020743 4.012200 177.196268 1.904559 -160.540895 11.007901 1.126266 -3.137613 -11.450108 -21.168394 -75.607065 15.145246 25.823271 78.790521 1.968959 -2.700189 -27.219188 1.668100 -8.137600 -23.132800 -14.032153 -2.781347 -2.122190 33.486000 15.855844 -14.098155 1.042528 -5.214233 13.361509 -1.153862 -2.283108 -21.305971 -3.826600 11.926000 -35.470600 -3.295083 0.276208 -13.103684 1.252441 0.823288 -3.188945 -0.212766 -0.328811 14.900571 -9.869512 -2.297607 -4.757561 8.782411 -5.965041 29.325378 1.068200 -2.129400 7.273800 16.383778 -0.749057 0.927911 -105.167816 -0.759541 19.044847 14.587664 -18.011747 -3.065029 -1.524427 0.582513 6.592198 19.568112 -9.722771 -3.865600 -7.125000 0.000000 0.000000 -4.162600 19.224000 2.566600 -11.543444 0.828903 0.010661 96.765542 4.509791 16.422889 -20.778054 32.735477 -7.812474 0.322008 3.932261 -3.177314 -10.312845 -52.816125 9.098800 7.125000 0.000000 0.000000 81.521000 -75.924500 -66.914100 
10.991526 18.019756 3.940160 177.129592 1.944276 -160.573878 11.009191 1.139321 -3.125779 -11.460036 -21.122910 -75.690813 14.556384 25.708144 77.246322 1.857971 -2.712385 -26.617997 2.005900 -8.878300 -25.415400 -14.009621 -2.802491 -2.155895 33.491477 15.670307 -13.747314 1.036223 -5.148428 13.308328 -1.183614 -2.158312 -21.464480 -3.842300 11.947500 -35.546500 -3.345164 0.306487 -13.079027 1.221799 0.888965 -3.168120 -0.260570 -0.296467 14.947235 -9.898919 -2.244830 -4.754999 8.766747 -5.862251 29.255555 1.078900 -2.080300 7.245900 16.379296 -0.750348 0.935326 -105.108452 -0.737652 18.912830 14.574397 -17.995605 -3.056331 -1.524340 0.577128 6.700056 19.579130 -9.633501 -3.831000 -7.125000 0.000000 0.000000 -4.152600 19.326600 2.551000 -11.564017 0.825756 0.008722 96.786074 4.565142 17.004101 -20.976914 32.956215 -7.928526 0.261300 3.970344 -3.545863 -9.889379 -53.781471 8.811300 7.125000 0.000000 0.000000 85.557800 -75.773400 -70.779200 
10.993500 18.015151 3.873164 177.091009 1.982259 -160.511119 11.015657 1.148921 -3.119651 -11.412407 -21.094553 -75.836685 14.005252 25.589627 75.793078 1.770614 -2.761283 -26.179155 2.333900 -9.529400 -27.465800 -13.992325 -2.809406 -2.170569 33.490926 15.603731 -13.546916 1.033971 -5.123830 13.308139 -1.215896 -2.118106 -21.701607 -3.889300 12.011700 -35.773300 -3.414386 0.321853 -13.145232 1.179224 0.945351 -3.165228 -0.326120 -0.269633 14.989216 -9.941342 -2.233663 -4.911779 8.862191 -5.894720 29.528041 1.129000 -2.091800 7.379300 16.384428 -0.736417 0.935355 -104.943830 -0.663923 18.888340 14.609231 -18.058460 -3.071235 -1.526541 0.545298 6.511825 19.572860 -9.440379 -3.746000 -7.125000 0.000000 0.000000 -4.154400 19.560600 2.530300 -11.590300 0.827457 0.003050 96.901714 4.670841 17.534456 -21.101775 33.098153 -8.008542 0.298803 3.931357 -3.756468 -10.615769 -53.050331 9.391300 7.125000 0.000000 0.000000 82.419000 -76.046900 -67.941200 
10.992513 18.009010 3.805290 177.032267 2.051291 -160.489945 11.017835 1.154356 -3.106771 -11.299824 -21.144868 -75.875538 13.475947 25.458414 74.389914 1.671674 -3.108621 -25.876819 2.148500 -9.168700 -26.324500 -13.974231 -2.820589 -2.191516 33.465162 15.520754 -13.246352 1.035072 -5.051507 13.210347 -1.240245 -2.054645 -21.840521 -3.910900 12.040900 -35.876900 -3.525833 0.346330 -13.095460 1.146692 1.013570 -3.164392 -0.361799 -0.233009 14.934960 -9.653031 -2.204424 -4.589603 8.728332 -5.825201 29.081566 1.012100 -2.045000 7.136700 16.399019 -0.759858 0.942938 -104.864885 -0.644269 18.796997 14.590780 -18.032165 -3.058607 -1.526246 0.515966 6.446690 19.539035 -9.185705 -3.632300 -7.125000 0.000000 0.000000 -4.176100 19.862200 2.515400 -11.593495 0.816456 -0.000597 96.970005 4.754218 18.104990 -21.262676 33.272430 -8.111447 0.332978 3.929909 -3.878652 -11.348056 -53.043416 10.044500 7.125000 0.000000 0.000000 82.327000 -76.324300 -68.159200 
10.990430 18.004295 3.727658 176.984882 2.112620 -160.588669 11.006827 1.166154 -3.076419 -11.229775 -21.215477 -75.699691 12.954563 25.311700 72.997786 1.564173 -3.240981 -25.347676 2.153600 -9.178900 -26.356500 -13.950636 -2.842885 -2.233834 33.493443 15.291605 -12.797646 1.027144 -4.966160 13.138857 -1.268673 -1.919173 -21.951681 -3.919600 12.052700 -35.918600 -3.568225 0.354334 -12.964423 1.135790 1.039433 -3.170973 -0.376025 -0.223679 14.849196 -9.804248 -2.276807 -4.968855 8.583919 -5.867569 29.685884 1.013600 -2.085400 7.453200 16.380041 -0.700480 0.937912 -104.932314 -0.541881 18.584253 14.526905 -17.928934 -3.025627 -1.520554 0.517268 6.628095 19.485218 -9.094766 -3.586200 -7.125000 0.000000 0.000000 -4.216100 19.965300 2.529900 -11.614663 0.864329 -0.008121 96.981534 4.703896 18.581938 -21.431377 33.455458 -8.202981 0.266944 3.965071 -3.802568 -10.331821 -54.072873 9.235100 7.125000 0.000000 0.000000 86.696600 -75.925700 -72.101500 
10.989552 17.999690 3.653864 177.000141 2.174943 -160.627178 11.001528 1.168634 -3.067751 -11.147963 -21.189301 -75.566316 12.470114 25.163182 71.693789 1.470653 -3.154883 -24.718116 2.408400 -9.669400 -27.912700 -13.930159 -2.854999 -2.255256 33.541182 15.142838 -12.696444 0.994002 -5.079171 13.499704 -1.313183 -1.805117 -22.255555 -3.948300 12.091300 -36.055800 -3.563978 0.414759 -12.944998 1.120408 1.121472 -3.155748 -0.396366 -0.181090 14.867981 -9.822447 -2.331331 -4.863510 8.498384 -5.927794 29.645905 0.983300 -2.126900 7.410200 16.369954 -0.703538 0.946134 -104.948419 -0.522001 18.370215 14.465931 -17.845550 -2.998948 -1.518126 0.582852 6.939909 19.529606 -9.539386 -3.785200 -7.125000 0.000000 0.000000 -4.188600 19.429700 2.563500 -11.619060 0.857878 -0.011342 97.014145 4.756542 18.867121 -21.510976 33.522286 -8.230445 0.221381 3.930253 -3.543863 -9.056578 -53.685681 8.054900 7.125000 0.000000 0.000000 85.049800 -75.468800 -69.925700 
